<svg width="23" height="17" viewBox="0 0 23 17" fill="none" xmlns="http://www.w3.org/2000/svg">
<g clip-path="url(#clip0_1:1969)">
<path d="M5.27965 7.79166H0.487971C0.223471 7.79166 0.00878906 7.95033 0.00878906 8.14583V16.6458C0.00878906 16.8413 0.223471 17 0.487971 17H5.27965C5.54415 17 5.75883 16.8413 5.75883 16.6458V8.1458C5.75879 7.9503 5.5451 7.79166 5.27965 7.79166Z" fill="#909090"/>
<path d="M13.8862 0H9.09448C8.82998 0 8.6153 0.158678 8.6153 0.354178V16.6459C8.6153 16.8414 8.82998 17 9.09448 17H13.8862C14.1507 17 14.3653 16.8414 14.3653 16.6459V0.354178C14.3653 0.158678 14.1507 0 13.8862 0Z" fill="#909090"/>
<path d="M22.5112 3.54166H17.7195C17.455 3.54166 17.2404 3.70033 17.2404 3.89583V16.6458C17.2404 16.8413 17.455 17 17.7195 17H22.5112C22.7757 17 22.9904 16.8413 22.9904 16.6458V3.89583C22.9904 3.7003 22.7757 3.54166 22.5112 3.54166Z" fill="#909090"/>
</g>
<defs>
<clipPath id="clip0_1:1969">
<rect width="23" height="17" fill="white"/>
</clipPath>
</defs>
</svg>
